<?xml version="1.0"?>
<svg xmlns="http://www.w3.org/2000/svg" xmlns:lc="https://librecad.org" xmlns:xlink="http://www.w3.org/1999/xlink" width="476.1852753in" height="505.359375in" viewBox="0 0 476.1852753 505.359375">
    <g lc:layername="A-CLNG-SOFFIT" lc:is_locked="false" lc:is_construction="false" fill="none" stroke="black" stroke-width="1">
        <line x1="436.05269278" y1="81.00340535" x2="377.3102753" y2="81.00340535"/>
        <line x1="326.4352753" y1="358.35622329" x2="326.4352753" y2="329.11101607"/>
        <line x1="316.46171595" y1="492.359375" x2="316.46171595" y2="448.859375"/>
        <path d="M207,92.92039912 L207,104.94444577 "/>
        <line x1="67.31236161" y1="223.25888348" x2="130.125" y2="223.25888348"/>
        <line x1="285.5602753" y1="378.60622329" x2="285.5602753" y2="428.60832443"/>
        <path d="M326.4352753,358.35622329 L326.4352753,329.11101607 "/>
        <line x1="207" y1="104.94444577" x2="159" y2="104.94444577"/>
        <line x1="130.125" y1="223.25888348" x2="130.125" y2="492.35937496"/>
        <path d="M388.80269278,63.00340535 L424.80269278,63.00340535 L424.80269278,27 L388.80269278,27 L388.80269278,63.00340535 Z "/>
        <line x1="269.56132774" y1="257.51455394" x2="219.12339857" y2="257.51455394"/>
        <path d="M81.47042696,104.21069369 L141.47042696,104.21069369 L141.47042696,140.21069369 L81.47042696,140.21069369 L81.47042696,104.21069369 Z "/>
        <line x1="326.4352753" y1="428.60832443" x2="326.4352753" y2="378.60727386"/>
        <line x1="81.27320594" y1="183.26304969" x2="81.27320593" y2="156.37598827"/>
        <line x1="81.27320594" y1="183.26304969" x2="67.49763691" y2="183.26304969"/>
        <path d="M316.4352753,218.75 L316.4352753,164.64247161 "/>
    </g>
    <g lc:layername="A-DOOR-THLD" lc:is_locked="false" lc:is_construction="false" fill="none" stroke="black" stroke-width="1">
        <line x1="279.71959558" y1="169.51827453" x2="279.71959558" y2="205.51827453"/>
        <line x1="275.71959558" y1="169.51827453" x2="275.71959558" y2="205.51827453"/>
        <line x1="443.62388873" y1="498.984375" x2="443.62388873" y2="499.984375"/>
        <line x1="443.62388873" y1="492.984375" x2="443.62388873" y2="492.359375"/>
        <line x1="349.1227753" y1="498.984375" x2="349.1227753" y2="499.984375"/>
        <line x1="349.1227753" y1="492.984375" x2="349.1227753" y2="492.359375"/>
        <line x1="443.24087888" y1="496.32658294" x2="349.50578515" y2="496.32658294"/>
        <line x1="100.7710653" y1="498.98592962" x2="100.7710653" y2="499.98592962"/>
        <line x1="100.7710653" y1="492.98592962" x2="100.7710653" y2="492.36092962"/>
        <line x1="30.26995187" y1="498.98592962" x2="30.26995187" y2="499.98592962"/>
        <line x1="30.26995187" y1="492.98592962" x2="30.26995187" y2="492.36092962"/>
        <line x1="100.38805545" y1="496.32813756" x2="30.65296172" y2="496.32813756"/>
    </g>
    <g lc:layername="A-FAIRH-HATCH" lc:is_locked="false" lc:is_construction="false" fill="none" stroke="black" stroke-width="1"/>
    <g lc:layername="A-GLAZ-FULL" lc:is_locked="false" lc:is_construction="false" fill="none" stroke="black" stroke-width="1">
        <path d="M98.73307108,495.19978406 L66.64505965,495.19978406 L66.64505965,495.01257427 L98.73307108,495.01257427 "/>
        <path d="M65.14484409,493.20496983 L32.33609925,493.20496983 L32.33609925,493.39217962 L65.14484409,493.39217962 "/>
        <path d="M441.58589452,495.19822944 L397.49788308,495.19822944 L397.49788308,495.01101964 L441.58589452,495.01101964 "/>
        <path d="M395.99766752,493.20341521 L351.18892268,493.20341521 L351.18892268,493.390625 L395.99766752,493.390625 "/>
        <path d="M98.73307108,495.19978406 L66.64505965,495.19978406 L66.64505965,495.01257427 L98.73307108,495.01257427 "/>
        <path d="M65.14484409,493.20496983 L32.33609925,493.20496983 L32.33609925,493.39217962 L65.14484409,493.39217962 "/>
    </g>
    <g lc:layername="A-GLAZ-PRHT" lc:is_locked="false" lc:is_construction="false" fill="none" stroke="black" stroke-width="1">
        <line x1="193.57977612" y1="495.484375" x2="215.07977612" y2="495.484375"/>
        <line x1="193.57977612" y1="496.484375" x2="215.07977612" y2="496.484375"/>
        <line x1="217.07977612" y1="496.484375" x2="238.57977612" y2="496.484375"/>
        <line x1="217.07977612" y1="495.484375" x2="238.57977612" y2="495.484375"/>
    </g>
    <g lc:layername="A-GLAZ-SILL" lc:is_locked="false" lc:is_construction="false" fill="none" stroke="black" stroke-width="1">
        <line x1="192.07977612" y1="492.35937508" x2="240.07977612" y2="492.35937508"/>
        <line x1="192.07977612" y1="501.359375" x2="240.03977449" y2="501.359375"/>
        <line x1="192.07977612" y1="498.10937529" x2="192.07977612" y2="501.359375"/>
        <line x1="240.07977612" y1="498.359375" x2="240.07977612" y2="501.359375"/>
    </g>
    <g lc:layername="A-HVAC-CLNG" lc:is_locked="false" lc:is_construction="false" fill="none" stroke="black" stroke-width="1">
        <line x1="224" y1="118.01079235" x2="228" y2="114.01079235"/>
        <line x1="224" y1="110.01079235" x2="232" y2="118.01079235"/>
        <path d="M232,110.01079235 L232,118.01079235 L224,118.01079235 L224,110.01079235 L232,110.01079235 Z "/>
        <path d="M188.09103839,123.76762825 L188.09103839,135.76762825 L200.09103839,135.76762825 L200.09103839,123.76762825 L188.09103839,123.76762825 Z "/>
        <line x1="188.09103839" y1="123.76762825" x2="200.09103839" y2="135.76762825"/>
        <line x1="188.09103839" y1="135.76762825" x2="200.09103839" y2="123.76762825"/>
        <path d="M285.5602753,409.60727386 L285.5602753,397.60727386 L279.5602753,397.60727386 L279.5602753,409.60727386 L285.5602753,409.60727386 Z "/>
        <line x1="285.5602753" y1="409.60727386" x2="279.5602753" y2="397.60727386"/>
        <line x1="285.5602753" y1="397.60727386" x2="279.5602753" y2="409.60727386"/>
        <path d="M130.125,277.625 L130.125,265.625 L124.125,265.625 L124.125,277.625 L130.125,277.625 Z "/>
        <line x1="130.125" y1="277.625" x2="124.125" y2="265.625"/>
        <line x1="130.125" y1="265.625" x2="124.125" y2="277.625"/>
        <path d="M130.125,461.36081431 L130.125,473.36081431 L124.125,473.36081431 L124.125,461.36081431 L130.125,461.36081431 Z "/>
        <line x1="130.125" y1="461.36081431" x2="124.125" y2="473.36081431"/>
        <line x1="130.125" y1="473.36081431" x2="124.125" y2="461.36081431"/>
        <path d="M316.35655295,477.54737704 L316.35655295,465.54737704 L322.35655295,465.54737704 L322.35655295,477.54737704 L316.35655295,477.54737704 Z "/>
        <line x1="316.35655295" y1="477.54737704" x2="322.35655295" y2="465.54737704"/>
        <line x1="316.35655295" y1="465.54737704" x2="322.35655295" y2="477.54737704"/>
        <path d="M316.43580152,285.93050734 L316.43580152,273.93050734 L322.43580152,273.93050734 L322.43580152,285.93050734 L316.43580152,285.93050734 Z "/>
        <line x1="316.43580152" y1="285.93050734" x2="322.43580152" y2="273.93050734"/>
        <line x1="316.43580152" y1="273.93050734" x2="322.43580152" y2="285.93050734"/>
        <path d="M316.4352753,197.69623581 L316.4352753,185.69623581 L322.4352753,185.69623581 L322.4352753,197.69623581 L316.4352753,197.69623581 Z "/>
        <line x1="316.4352753" y1="197.69623581" x2="322.4352753" y2="185.69623581"/>
        <line x1="316.4352753" y1="185.69623581" x2="322.4352753" y2="197.69623581"/>
        <path d="M239.31454485,284.90677529 L239.31454485,296.90677529 L251.31454485,296.90677529 L251.31454485,284.90677529 L239.31454485,284.90677529 Z "/>
        <line x1="239.31454485" y1="284.90677529" x2="251.31454485" y2="296.90677529"/>
        <line x1="239.31454485" y1="296.90677529" x2="251.31454485" y2="284.90677529"/>
    </g>
    <g lc:layername="A-HVAC-FLOR" lc:is_locked="false" lc:is_construction="false" fill="none" stroke="black" stroke-width="1">
        <path d="M294.10370383,492.359375 L310.10370383,492.359375 L310.10370383,489.359375 L294.10370383,489.359375 L294.10370383,492.359375 Z "/>
        <line x1="294.10370383" y1="492.359375" x2="310.10370383" y2="489.359375"/>
        <path d="M131.24515739,492.35526349 L147.24515739,492.35526349 L147.24515739,489.35526349 L131.24515739,489.35526349 L131.24515739,492.35526349 Z "/>
        <line x1="131.24515739" y1="492.35526349" x2="147.24515739" y2="489.35526349"/>
        <path d="M271.52938622,492.359375 L281.52938622,492.359375 L281.52938622,489.359375 L271.52938622,489.359375 L271.52938622,492.359375 Z "/>
        <line x1="271.52938622" y1="492.359375" x2="281.52938622" y2="489.359375"/>
    </g>
    <g lc:layername="A-MLWK" lc:is_locked="false" lc:is_construction="false" fill="none" stroke="black" stroke-width="1">
        <line x1="308.4352753" y1="218.00757202" x2="308.39933793" y2="246.9120346"/>
        <line x1="219.12234614" y1="228.76455421" x2="280.70918269" y2="228.77577808"/>
        <line x1="295.5290253" y1="321.35727068" x2="295.5290253" y2="373.73227386"/>
        <line x1="297.5290253" y1="321.35727068" x2="297.5290253" y2="373.73227386"/>
        <line x1="219.12234614" y1="230.76455421" x2="280.76778183" y2="230.82475013"/>
    </g>
    <g lc:layername="A-MWAL" lc:is_locked="false" lc:is_construction="false" fill="none" stroke="black" stroke-width="1">
        <line x1="471.3727753" y1="499.98391356" x2="443.62388873" y2="499.984375"/>
        <line x1="192.07976548" y1="499.614435" x2="164.62499578" y2="499.61060186"/>
        <line x1="30.26995387" y1="499.59323959" x2="0" y2="499.58995604"/>
        <line x1="30.27031987" y1="499.97103388" x2="0.375" y2="499.96827464"/>
        <line x1="192.07977612" y1="498.98437508" x2="192.07975933" y2="499.97911555"/>
        <line x1="240.07977612" y1="498.984375" x2="240.07975932" y2="499.97992547"/>
        <line x1="349.1227753" y1="499.98182866" x2="323.5602753" y2="499.9814026"/>
        <line x1="312.8102753" y1="499.98122122" x2="271.8102753" y2="499.98052941"/>
        <path d="M323.5602753,499.9814026 L323.5602753,505.359375 L312.8102753,505.359375 L312.8102753,499.98122122 "/>
        <line x1="266.5602753" y1="499.98044083" x2="240.07975932" y2="499.97992547"/>
        <line x1="192.07975933" y1="499.97911555" x2="165.62499578" y2="499.9787014"/>
        <line x1="160.99999578" y1="499.60953961" x2="100.7710653" y2="499.60223261"/>
        <line x1="160.37499578" y1="499.97857621" x2="100.7710653" y2="499.98592962"/>
        <line x1="377.67769278" y1="9.75" x2="387.75403046" y2="9.75"/>
        <line x1="427.26602104" y1="9.75" x2="476.1852753" y2="9.75"/>
        <line x1="377.67769278" y1="9.75" x2="377.67769278" y2="0"/>
        <line x1="388.6133562" y1="10.75" x2="388.6133562" y2="10.125"/>
        <line x1="388.6133562" y1="14.375" x2="388.6133562" y2="15"/>
        <line x1="426.40584736" y1="10.75" x2="426.40584736" y2="10.125"/>
        <line x1="426.40494132" y1="14.37371467" x2="426.40494132" y2="14.99871467"/>
    </g>
    <g lc:layername="A-WALL-GYP" lc:is_locked="false" lc:is_construction="false" fill="none" stroke="black" stroke-width="1">
        <line x1="26.2508201" y1="264.32042498" x2="2.25" y2="264.32042498"/>
        <line x1="26.2508201" y1="264.32042498" x2="67.31236161" y2="223.25888348"/>
        <line x1="470.1227753" y1="81.00340535" x2="470.1227753" y2="492.359375"/>
        <line x1="285.56009356" y1="218.01455421" x2="285.56108347" y2="241.76455394"/>
        <line x1="290.43504117" y1="218.00757202" x2="290.43621942" y2="246.27634313"/>
        <line x1="219.12308136" y1="241.76455394" x2="219.12209145" y2="218.01455421"/>
        <line x1="355.3102753" y1="81.00340535" x2="377.3102753" y2="81.00340535"/>
        <line x1="350.4352753" y1="76.12840535" x2="372.4352753" y2="76.12840535"/>
        <line x1="220.12234614" y1="213.13955421" x2="154.125" y2="213.13955421"/>
        <line x1="218.49734614" y1="213.13955421" x2="220.12234614" y2="213.13955421"/>
        <line x1="219.12209145" y1="218.01455421" x2="220.12234614" y2="218.01455421"/>
        <line x1="355.3102753" y1="116.77079464" x2="355.3102753" y2="81.00340535"/>
        <line x1="350.4352753" y1="112.12840535" x2="350.4352753" y2="76.12840535"/>
        <line x1="350.4352753" y1="112.12840535" x2="311.5602753" y2="112.12840535"/>
        <line x1="316.4352753" y1="164.64247161" x2="280.1567874" y2="164.64327453"/>
        <line x1="316.4352753" y1="213.13257202" x2="280.1567874" y2="213.13257202"/>
        <line x1="275.2817874" y1="168.26827668" x2="275.2817874" y2="164.64327453"/>
        <line x1="280.1567874" y1="168.2682756" x2="280.1567874" y2="164.64327453"/>
        <line x1="67.31236161" y1="151.50018535" x2="103.96558539" y2="151.50018535"/>
        <line x1="275.2817874" y1="206.76827453" x2="275.2817874" y2="213.13955421"/>
        <line x1="275.2817874" y1="213.13955421" x2="269.37234773" y2="213.14060924"/>
        <line x1="285.56009356" y1="218.01455421" x2="269.37234614" y2="218.01455688"/>
        <line x1="311.56409063" y1="218.0075696" x2="290.43504117" y2="218.00757202"/>
        <line x1="280.1567874" y1="206.76827346" x2="280.1567874" y2="213.13257202"/>
        <line x1="355.3102753" y1="116.77079464" x2="345.11280733" y2="116.77079464"/>
        <line x1="316.4352753" y1="213.13257202" x2="316.43527537" y2="218.00756904"/>
        <line x1="372.4352753" y1="35.75340535" x2="372.4352753" y2="7.625"/>
        <line x1="377.3102753" y1="35.75340535" x2="377.3102753" y2="15"/>
        <line x1="377.30269278" y1="10.125" x2="388.6133562" y2="10.125"/>
        <line x1="377.3102753" y1="15" x2="388.6133562" y2="15"/>
        <line x1="377.30269278" y1="10.125" x2="377.30269278" y2="0.375"/>
        <line x1="377.3102753" y1="81.00340535" x2="377.3102753" y2="35.75340535"/>
        <line x1="372.4352753" y1="76.12840535" x2="372.4352753" y2="35.75340535"/>
        <line x1="470.1227753" y1="15" x2="470.1227753" y2="76.12840535"/>
        <line x1="426.40584736" y1="10.125" x2="476.1852753" y2="10.125"/>
        <line x1="440.92769278" y1="15" x2="470.1227753" y2="15"/>
        <line x1="426.40584736" y1="15" x2="436.05269278" y2="15"/>
        <line x1="436.05269278" y1="15" x2="436.05269278" y2="15.11994844"/>
        <line x1="440.92664042" y1="18.12500159" x2="440.92769278" y2="15"/>
        <line x1="440.92769278" y1="76.12840535" x2="470.0602753" y2="76.12840535"/>
        <line x1="436.05269278" y1="81.00340535" x2="470.1227753" y2="81.00340535"/>
        <line x1="436.05269278" y1="67.37500318" x2="436.05269278" y2="81.00340535"/>
        <line x1="436.05269278" y1="73.25340535" x2="436.05269278" y2="73.13345692"/>
        <line x1="440.92664042" y1="67.37500159" x2="440.92769278" y2="76.12840535"/>
        <line x1="166.25" y1="321.35727068" x2="166.25" y2="492.35937501"/>
        <line x1="290.43621942" y1="245.52634313" x2="219.12368847" y2="245.51455394"/>
        <line x1="285.56108347" y1="241.76455394" x2="219.12308136" y2="241.76455394"/>
        <line x1="166.25" y1="321.35727068" x2="233.5602753" y2="321.35727068"/>
        <line x1="166.25" y1="316.48227068" x2="233.5602753" y2="316.48227068"/>
        <line x1="166.25" y1="228.43655667" x2="166.25" y2="316.48227068"/>
        <line x1="219.12382871" y1="270.45739722" x2="219.12368847" y2="245.51455394"/>
        <line x1="326.4352753" y1="308.86101607" x2="326.4352753" y2="329.11101607"/>
        <line x1="311.5602753" y1="373.73227386" x2="311.5602753" y2="321.35727068"/>
        <line x1="316.4352753" y1="358.35622329" x2="316.4352753" y2="329.11101607"/>
        <line x1="311.56132774" y1="253.74999861" x2="311.5602753" y2="316.48227068"/>
        <line x1="311.56132774" y1="251.74999861" x2="274.43629142" y2="251.74999861"/>
        <line x1="274.43629142" y1="251.74999861" x2="274.43663027" y2="270.41244756"/>
        <line x1="269.56165944" y1="246.13955394" x2="269.56161763" y2="270.41244756"/>
        <line x1="274.43663027" y1="270.41244756" x2="269.56161763" y2="270.41244756"/>
        <line x1="311.56519033" y1="246.87499991" x2="290.43624438" y2="246.87499861"/>
        <line x1="269.5602753" y1="316.48227068" x2="311.5602753" y2="316.48227068"/>
        <line x1="269.5602753" y1="321.35727068" x2="285.5602753" y2="321.35727068"/>
        <line x1="290.4352753" y1="321.35727068" x2="311.5602753" y2="321.35727068"/>
        <line x1="290.4352753" y1="321.35727068" x2="290.43527489" y2="324.48227227"/>
        <line x1="316.43527549" y1="248.63136008" x2="316.4352753" y2="308.86101607"/>
        <line x1="326.4352753" y1="308.86101607" x2="316.4352753" y2="308.86101607"/>
        <line x1="326.4352753" y1="329.11101607" x2="316.4352753" y2="329.11101607"/>
        <line x1="326.4352753" y1="448.859375" x2="290.4352753" y2="448.859375"/>
        <line x1="309.5602753" y1="428.60832443" x2="309.5602753" y2="378.60622329"/>
        <line x1="309.5602753" y1="378.60622329" x2="285.58370148" y2="378.60622329"/>
        <line x1="308.70870148" y1="373.73227386" x2="285.58370148" y2="373.73227386"/>
        <line x1="285.5602753" y1="373.73227386" x2="285.5602753" y2="378.60622329"/>
        <line x1="311.5602753" y1="373.73227386" x2="308.6852753" y2="373.73227386"/>
        <line x1="285.5602753" y1="428.60832443" x2="309.5602753" y2="428.60832443"/>
        <line x1="285.56132664" y1="451.984375" x2="285.5602753" y2="428.60832443"/>
        <line x1="316.4352753" y1="428.60832443" x2="316.4352753" y2="378.60727386"/>
        <line x1="316.4352753" y1="358.35622329" x2="326.4352753" y2="358.35622329"/>
        <line x1="326.4352753" y1="378.60727386" x2="316.4352753" y2="378.60727386"/>
        <line x1="326.4352753" y1="448.859375" x2="326.4352753" y2="428.609375"/>
        <line x1="316.4352753" y1="428.60832443" x2="326.4352753" y2="428.60832443"/>
        <line x1="240.07977612" y1="492.359375" x2="285.5602753" y2="492.359375"/>
        <line x1="240.07977612" y1="499.609375" x2="267.56027786" y2="499.609375"/>
        <line x1="166.25" y1="492.359375" x2="192.07977612" y2="492.359375"/>
        <line x1="192.07977612" y1="492.98437508" x2="192.07977612" y2="492.35937508"/>
        <line x1="240.07977612" y1="492.984375" x2="240.07977612" y2="492.359375"/>
        <line x1="290.4352753" y1="492.359375" x2="349.1227753" y2="492.359375"/>
        <line x1="285.5602753" y1="492.359375" x2="285.5602753" y2="490.359375"/>
        <line x1="290.4352753" y1="492.359375" x2="290.4352753" y2="490.359375"/>
        <line x1="443.62388873" y1="499.6103226" x2="472.3727753" y2="499.609375"/>
        <line x1="443.62388873" y1="492.359375" x2="470.1227753" y2="492.359375"/>
        <line x1="275.2817874" y1="164.64327453" x2="199.37419557" y2="164.64488047"/>
        <line x1="278.76648155" y1="159.76747161" x2="278.76648155" y2="99.76747161"/>
        <line x1="162.12500159" y1="164.64488047" x2="154.125" y2="164.64407745"/>
        <line x1="67.31236161" y1="92.92120203" x2="154.125" y2="92.92120203"/>
        <line x1="154.125" y1="164.64407745" x2="154.125" y2="92.92039912"/>
        <line x1="199.37419716" y1="159.77093283" x2="278.76648155" y2="159.76747161"/>
        <line x1="67.31236161" y1="88.04620203" x2="283.64148155" y2="88.04620203"/>
        <line x1="2.25" y1="264.32042498" x2="2.25" y2="492.35937498"/>
        <line x1="349.1227753" y1="499.609375" x2="323.1852753" y2="499.609375"/>
        <line x1="192.07977613" y1="492.35937508" x2="165.625" y2="492.35937501"/>
        <line x1="154.125" y1="213.13955421" x2="154.125" y2="492.35937496"/>
        <line x1="345.11280733" y1="116.77079464" x2="316.4352753" y2="145.44832667"/>
        <line x1="30.26995187" y1="492.36082226" x2="1.62096181" y2="492.36098129"/>
        <line x1="154.125" y1="492.35307211" x2="100.7710653" y2="492.36092962"/>
        <line x1="313.1852753" y1="499.609375" x2="271.18527786" y2="499.609375"/>
        <line x1="279.5317874" y1="206.76827346" x2="280.1567874" y2="206.76827346"/>
        <line x1="275.9067874" y1="206.76827453" x2="275.2817874" y2="206.76827453"/>
        <line x1="279.5317874" y1="168.2682756" x2="280.1567874" y2="168.2682756"/>
        <line x1="275.9067874" y1="168.26827668" x2="275.2817874" y2="168.26827668"/>
        <line x1="67.31236161" y1="92.92120203" x2="67.31236161" y2="94.60894788"/>
        <line x1="283.64148155" y1="159.76747161" x2="283.64148155" y2="88.04620203"/>
        <line x1="246.75" y1="100.39247161" x2="278.76648155" y2="100.39247161"/>
        <line x1="246.75" y1="100.39247161" x2="246.75" y2="92.92039912"/>
        <line x1="159" y1="92.92120203" x2="159" y2="159.77093283"/>
        <line x1="283.64148155" y1="159.76747161" x2="311.5602753" y2="159.76747161"/>
        <line x1="316.4352753" y1="145.44832667" x2="316.4352753" y2="164.64247161"/>
        <line x1="311.5602753" y1="159.76747161" x2="311.5602753" y2="112.12840535"/>
        <line x1="103.96558539" y1="151.50018535" x2="103.96558539" y2="156.37598827"/>
        <line x1="159" y1="159.76827453" x2="159" y2="159.76827453"/>
        <line x1="103.96558539" y1="156.37598827" x2="67.31236161" y2="156.37598827"/>
        <line x1="67.31236161" y1="156.34473827" x2="67.31236161" y2="223.25888348"/>
        <line x1="83.30648208" y1="156.37598827" x2="83.30648208" y2="151.50018535"/>
        <line x1="99.37323005" y1="156.37598827" x2="99.37323005" y2="151.50018535"/>
        <line x1="159" y1="92.92120203" x2="246.75" y2="92.92120203"/>
        <line x1="67.31236161" y1="76.24967949" x2="67.31236161" y2="88.04620203"/>
        <line x1="326.4352753" y1="358.35622329" x2="326.4352753" y2="378.60727386"/>
        <line x1="67.31236161" y1="92.92120203" x2="67.31236161" y2="95.46912156"/>
        <line x1="62.43736161" y1="75.95524809" x2="62.43736161" y2="95.46912156"/>
        <line x1="63.06236161" y1="95.46912156" x2="62.43736161" y2="95.46912156"/>
        <line x1="66.68736161" y1="95.46912156" x2="67.31236161" y2="95.46912156"/>
        <line x1="63.06236161" y1="133.26076478" x2="62.43736161" y2="133.26076478"/>
        <line x1="66.68736161" y1="133.26076478" x2="67.31236161" y2="133.26076478"/>
        <line x1="62.43736161" y1="133.26076478" x2="62.43736161" y2="219.86110005"/>
        <line x1="67.31236161" y1="133.26076478" x2="67.31236161" y2="151.46893535"/>
        <line x1="62.06236161" y1="134.12093846" x2="62.06236161" y2="219.70576997"/>
        <line x1="62.06236161" y1="75.95524809" x2="62.06236161" y2="94.60894788"/>
        <line x1="159" y1="159.77093283" x2="162.125" y2="159.77093283"/>
        <line x1="436.05269278" y1="15.05997422" x2="436.05269278" y2="18.125"/>
        <line x1="290.4352753" y1="448.859375" x2="290.43527428" y2="451.98437659"/>
        <line x1="290.4352753" y1="489.23357057" x2="290.4352753" y2="492.359375"/>
        <line x1="285.56132766" y1="489.23357216" x2="285.5602753" y2="492.359375"/>
        <line x1="306.3665313" y1="428.60832443" x2="306.3665313" y2="378.60727386"/>
        <line x1="304.1165313" y1="428.60832443" x2="304.1165313" y2="378.60727386"/>
        <line x1="311.56409063" y1="218.0075696" x2="311.56409063" y2="220.3253107"/>
        <line x1="311.56521313" y1="245.57531347" x2="311.56519033" y2="246.87499991"/>
        <line x1="219.12382871" y1="270.45739722" x2="214.24984559" y2="270.45739933"/>
        <line x1="214.24984559" y1="270.45739933" x2="214.24756703" y2="228.43655667"/>
        <line x1="280.70259859" y1="218.01455501" x2="280.7035885" y2="241.76455394"/>
        <line x1="214.24756703" y1="228.43655667" x2="166.25" y2="228.43655667"/>
        <line x1="290.43621942" y1="246.27634313" x2="290.43621939" y2="246.87499861"/>
    </g>
    <g lc:layername="A-WALL-IFULL" lc:is_locked="false" lc:is_construction="false" fill="none" stroke="black" stroke-width="1">
        <line x1="470.7477753" y1="80.37840535" x2="470.7477753" y2="492.984375"/>
        <line x1="289.81005221" y1="217.38257202" x2="289.81104739" y2="244.88955394"/>
        <line x1="218.49809632" y1="242.38955394" x2="218.49710346" y2="217.38955421"/>
        <line x1="286.18510213" y1="217.38955421" x2="286.18602751" y2="242.38941729"/>
        <line x1="354.6852753" y1="80.37840535" x2="376.68148404" y2="80.37840535"/>
        <line x1="351.0602753" y1="76.75340535" x2="373.0602753" y2="76.75340535"/>
        <line x1="220.12234614" y1="213.76455421" x2="154.75" y2="213.76455421"/>
        <line x1="217.87234614" y1="213.76455421" x2="220.12234614" y2="213.76455421"/>
        <line x1="218.49710346" y1="217.38955421" x2="220.12234614" y2="217.38955421"/>
        <line x1="351.0602753" y1="112.75340535" x2="351.0602753" y2="76.75340535"/>
        <line x1="354.6852753" y1="116.14579464" x2="354.6852753" y2="80.37840535"/>
        <line x1="351.0602753" y1="112.75340535" x2="312.1852753" y2="112.75340535"/>
        <line x1="315.8102753" y1="164.01747161" x2="279.5317874" y2="164.01827453"/>
        <line x1="315.8102753" y1="213.75757202" x2="279.5317874" y2="213.75757202"/>
        <line x1="312.1852753" y1="217.38257202" x2="289.81005221" y2="217.38257202"/>
        <line x1="275.9067874" y1="168.26827668" x2="275.9067874" y2="164.01827453"/>
        <line x1="279.5317874" y1="168.26827668" x2="279.5317874" y2="164.01827453"/>
        <line x1="66.68736161" y1="152.12518535" x2="82.68148208" y2="152.12518535"/>
        <line x1="279.39148155" y1="160.39270502" x2="279.39148155" y2="99.76747161"/>
        <line x1="275.9067874" y1="206.76827346" x2="275.9067874" y2="213.76455421"/>
        <line x1="275.9067874" y1="213.76455421" x2="269.37234752" y2="213.76455745"/>
        <line x1="286.18510213" y1="217.38955421" x2="269.37234634" y2="217.38955745"/>
        <line x1="279.5317874" y1="206.76827346" x2="279.5317874" y2="213.75757202"/>
        <line x1="354.6852753" y1="116.14579464" x2="344.85392386" y2="116.14579464"/>
        <line x1="315.8102753" y1="140.06291903" x2="320.88717826" y2="134.98601607"/>
        <line x1="315.8102753" y1="145.18944319" x2="344.85392386" y2="116.14579464"/>
        <line x1="339.72739969" y1="116.14579464" x2="323.1852753" y2="116.14579464"/>
        <line x1="323.1852753" y1="132.68791903" x2="339.72739969" y2="116.14579464"/>
        <line x1="319.5602753" y1="118.98601607" x2="319.5602753" y2="116.14579464"/>
        <line x1="319.5602753" y1="116.14579464" x2="315.8102753" y2="116.14579464"/>
        <line x1="323.1852753" y1="116.14579464" x2="323.1852753" y2="118.98601607"/>
        <line x1="315.8102753" y1="213.75757202" x2="315.8102753" y2="220.2563571"/>
        <line x1="373.0602753" y1="35.75340535" x2="373.0602753" y2="14.375"/>
        <line x1="376.6852753" y1="35.75340535" x2="376.6852753" y2="14.375"/>
        <line x1="373.0602753" y1="76.75340535" x2="373.0602753" y2="35.75340535"/>
        <line x1="376.6852753" y1="80.37840535" x2="376.6852753" y2="35.75340535"/>
        <line x1="440.30269229" y1="18.12500139" x2="440.30269278" y2="14.375"/>
        <line x1="436.67769278" y1="14.375" x2="436.67769229" y2="18.12500139"/>
        <line x1="440.30269229" y1="18.12500139" x2="436.67769229" y2="18.12500139"/>
        <line x1="440.30269278" y1="76.75340535" x2="472.3727753" y2="76.75340535"/>
        <line x1="436.67769278" y1="80.37840535" x2="472.3727753" y2="80.37840535"/>
        <line x1="440.30269139" y1="67.37500179" x2="440.30269278" y2="76.75340535"/>
        <line x1="436.67769278" y1="80.37840535" x2="436.67769139" y2="67.37500179"/>
        <line x1="440.30269139" y1="67.37500179" x2="436.67769139" y2="67.37500179"/>
        <line x1="165.625" y1="320.73227068" x2="165.625" y2="492.35937501"/>
        <line x1="286.18602751" y1="242.38941729" x2="218.49809632" y2="242.38955394"/>
        <line x1="164" y1="320.73227068" x2="232.9352753" y2="320.73227068"/>
        <line x1="164" y1="317.10727068" x2="232.9352753" y2="317.10727068"/>
        <line x1="214.87234614" y1="219.76455421" x2="164" y2="219.76455421"/>
        <line x1="165.625" y1="227.81155667" x2="165.625" y2="317.10727068"/>
        <line x1="218.49873573" y1="269.83239749" x2="218.49870776" y2="244.88955394"/>
        <line x1="232.9352753" y1="317.10727068" x2="232.9352753" y2="320.73227068"/>
        <line x1="312.1852753" y1="374.35727386" x2="312.1852753" y2="320.73227068"/>
        <line x1="315.8102753" y1="358.98227386" x2="315.8102753" y2="328.48601607"/>
        <line x1="312.18636283" y1="247.49999861" x2="289.81124831" y2="247.49999861"/>
        <line x1="312.1852753" y1="251.12499861" x2="312.1852753" y2="317.10727068"/>
        <line x1="312.1852753" y1="251.12499861" x2="273.81129142" y2="251.12499861"/>
        <line x1="273.81129142" y1="251.12499861" x2="273.81163027" y2="269.78744756"/>
        <line x1="270.18630577" y1="245.52299547" x2="270.18731915" y2="269.78744756"/>
        <line x1="273.81163027" y1="269.78744756" x2="270.18731915" y2="269.78744756"/>
        <line x1="270.1852753" y1="317.10727068" x2="312.1852753" y2="317.10727068"/>
        <line x1="286.18527489" y1="324.48227089" x2="289.81027489" y2="324.48227089"/>
        <line x1="270.1852753" y1="320.73227068" x2="286.1852753" y2="320.73227068"/>
        <line x1="286.1852753" y1="320.73227068" x2="286.18527489" y2="324.48227089"/>
        <line x1="289.8102753" y1="320.73227068" x2="312.1852753" y2="320.73227068"/>
        <line x1="289.8102753" y1="320.73227068" x2="289.81027489" y2="324.48227089"/>
        <line x1="315.8113978" y1="245.50635987" x2="315.8102753" y2="309.48601607"/>
        <line x1="325.8102753" y1="309.48601607" x2="325.8102753" y2="328.48601607"/>
        <line x1="325.8102753" y1="309.48601607" x2="315.8102753" y2="309.48601607"/>
        <line x1="325.8102753" y1="328.48601607" x2="315.8102753" y2="328.48601607"/>
        <line x1="322.1852753" y1="374.35727386" x2="309.3102753" y2="374.35727386"/>
        <line x1="322.1852753" y1="432.859375" x2="309.3102753" y2="432.859375"/>
        <line x1="322.1852753" y1="444.609375" x2="289.8102753" y2="444.609375"/>
        <line x1="325.8102753" y1="448.234375" x2="289.8102753" y2="448.234375"/>
        <line x1="325.8102753" y1="377.98227386" x2="286.20870148" y2="377.98227386"/>
        <line x1="325.8102753" y1="429.234375" x2="286.1852753" y2="429.234375"/>
        <line x1="314.1852753" y1="429.234375" x2="314.1852753" y2="377.98227386"/>
        <line x1="310.1852753" y1="429.234375" x2="310.1852753" y2="377.98227386"/>
        <line x1="311.8102753" y1="429.234375" x2="311.8102753" y2="377.98227386"/>
        <line x1="309.33370148" y1="374.35727386" x2="286.20870148" y2="374.35727386"/>
        <line x1="286.20870148" y1="373.73227386" x2="289.83370148" y2="373.73227386"/>
        <line x1="286.1852753" y1="374.35727386" x2="286.1852753" y2="377.98227386"/>
        <line x1="289.8102751" y1="451.98437639" x2="286.1852751" y2="451.98437639"/>
        <line x1="286.1852751" y1="451.98437639" x2="286.1852753" y2="429.234375"/>
        <line x1="289.8102753" y1="444.609375" x2="289.8102753" y2="432.859375"/>
        <line x1="309.3102753" y1="432.859375" x2="289.8102753" y2="432.859375"/>
        <line x1="289.8102751" y1="451.98437639" x2="289.8102753" y2="448.234375"/>
        <line x1="315.8102753" y1="429.234375" x2="315.8102753" y2="377.98227386"/>
        <line x1="325.8102753" y1="358.98227386" x2="325.8102753" y2="377.98227386"/>
        <line x1="322.1852753" y1="362.60727386" x2="322.1852753" y2="374.35727386"/>
        <line x1="315.8102753" y1="374.35727386" x2="315.8102753" y2="362.60727386"/>
        <line x1="325.8102753" y1="358.98227386" x2="315.8102753" y2="358.98227386"/>
        <line x1="322.1852753" y1="362.60727386" x2="315.8102753" y2="362.60727386"/>
        <line x1="322.1852753" y1="444.609375" x2="322.1852753" y2="432.859375"/>
        <line x1="325.8102753" y1="448.234375" x2="325.8102753" y2="429.234375"/>
        <line x1="286.21652494" y1="489.23357076" x2="289.84152494" y2="489.23357076"/>
        <line x1="289.84152494" y1="489.23357076" x2="286.21652494" y2="489.23357076"/>
        <line x1="286.1852753" y1="492.984375" x2="286.18527494" y2="489.23357076"/>
        <line x1="289.8102753" y1="492.984375" x2="289.81027494" y2="489.23357076"/>
        <line x1="275.9067874" y1="164.01827453" x2="199.37419577" y2="164.01827453"/>
        <line x1="161.97796844" y1="164.01907745" x2="154.75" y2="164.01827453"/>
        <line x1="158.375" y1="92.29539912" x2="158.375" y2="160.39247161"/>
        <line x1="154.75" y1="164.01827453" x2="154.75" y2="92.29539912"/>
        <line x1="66.68736161" y1="152.12518535" x2="82.68148208" y2="152.12518535"/>
        <line x1="66.68736161" y1="88.67120203" x2="283.01648155" y2="88.67120203"/>
        <line x1="1.625" y1="263.69542498" x2="1.625" y2="492.984375"/>
        <line x1="154.75" y1="213.76455421" x2="154.75" y2="492.98437497"/>
        <line x1="279.5317874" y1="206.76827346" x2="275.9067874" y2="206.76827346"/>
        <line x1="275.9067874" y1="168.26827668" x2="279.5317874" y2="168.26827668"/>
        <line x1="199.37419695" y1="160.39327453" x2="279.39148155" y2="160.39270502"/>
        <line x1="162.12500139" y1="164.01908258" x2="154.75" y2="164.01827453"/>
        <line x1="66.68736161" y1="92.29620203" x2="66.68736161" y2="95.46869759"/>
        <line x1="283.01648155" y1="160.39267922" x2="283.01648155" y2="88.67120203"/>
        <line x1="279.39148155" y1="99.76747161" x2="247.375" y2="99.76747161"/>
        <line x1="251" y1="96.14247161" x2="279.39148155" y2="96.14247161"/>
        <line x1="247.375" y1="99.76747161" x2="247.375" y2="92.29539912"/>
        <line x1="251" y1="96.14247161" x2="251" y2="92.29539912"/>
        <line x1="279.39148155" y1="92.29620203" x2="158.375" y2="92.29620203"/>
        <line x1="279.39148155" y1="96.14247161" x2="279.39148155" y2="92.29620203"/>
        <line x1="312.1852753" y1="160.39247161" x2="312.1852753" y2="112.75340535"/>
        <line x1="315.8102753" y1="116.14579464" x2="315.8102753" y2="118.98601607"/>
        <line x1="315.8102753" y1="145.18944319" x2="315.8102753" y2="164.01747161"/>
        <line x1="315.8102753" y1="134.98601607" x2="315.8102753" y2="140.06291903"/>
        <line x1="103.34058539" y1="152.12518535" x2="103.34058539" y2="155.75018535"/>
        <line x1="103.34058539" y1="155.75018535" x2="99.99823005" y2="155.75018535"/>
        <line x1="103.34058539" y1="155.75018535" x2="99.99823005" y2="155.75018535"/>
        <line x1="158.36398422" y1="160.39367599" x2="162.1250002" y2="160.39409378"/>
        <line x1="82.68148208" y1="155.75018535" x2="82.68148208" y2="152.12518535"/>
        <line x1="99.99823005" y1="155.75018535" x2="99.99823005" y2="152.12518535"/>
        <line x1="99.99823005" y1="152.12518535" x2="103.34058539" y2="152.12518535"/>
        <line x1="99.99823005" y1="152.12518535" x2="103.34058539" y2="152.12518535"/>
        <line x1="82.68148208" y1="155.75018535" x2="66.68736161" y2="155.75018535"/>
        <line x1="82.68148208" y1="155.75018535" x2="66.68736161" y2="155.75018535"/>
        <line x1="270.18536658" y1="317.10727068" x2="270.18531212" y2="320.73227068"/>
        <line x1="470.7477753" y1="76.75340535" x2="470.7477753" y2="14.375"/>
        <line x1="218.49873573" y1="269.83239749" x2="214.87370379" y2="269.83239906"/>
        <line x1="220.12234614" y1="217.38955421" x2="220.12234614" y2="213.76455421"/>
        <line x1="269.37234633" y1="217.38955478" x2="269.37234632" y2="213.76455478"/>
        <line x1="199.37419577" y1="164.01827453" x2="199.37416997" y2="160.39327453"/>
        <line x1="162.12500139" y1="164.01908258" x2="162.12540407" y2="160.39409383"/>
        <line x1="154.75" y1="92.29620203" x2="66.68736161" y2="92.29620203"/>
        <line x1="283.01648155" y1="160.39267922" x2="312.1852753" y2="160.39247161"/>
        <line x1="156.375" y1="219.76455421" x2="154.75" y2="219.76455421"/>
        <line x1="286.18629795" y1="247.49999861" x2="273.81141224" y2="247.49999861"/>
        <line x1="273.81147011" y1="245.52359477" x2="273.81141224" y2="247.49999861"/>
        <line x1="312.1852753" y1="217.38257202" x2="312.1852753" y2="220.2563571"/>
        <line x1="312.1863978" y1="245.50635987" x2="312.18636283" y2="247.49999861"/>
        <line x1="315.8102753" y1="220.2563571" x2="312.1852753" y2="220.2563571"/>
        <line x1="315.8113978" y1="245.50635987" x2="312.1863978" y2="245.50635987"/>
        <line x1="214.87370379" y1="269.83239906" x2="214.87252095" y2="227.81155667"/>
        <line x1="289.81104739" y1="244.88955394" x2="218.49812611" y2="244.88955394"/>
        <line x1="284.9525821" y1="218.01455431" x2="284.95352532" y2="241.76455394"/>
        <line x1="281.32763175" y1="218.01455491" x2="281.32857497" y2="241.76455394"/>
        <line x1="214.87252095" y1="227.81155667" x2="163.9999999" y2="227.81155667"/>
        <line x1="214.87246817" y1="224.18655667" x2="163.99999996" y2="224.18655667"/>
        <line x1="214.87246817" y1="224.18655667" x2="214.8723437" y2="219.76455421"/>
        <line x1="289.81096489" y1="245.52623976" x2="289.81124831" y2="247.49999861"/>
        <line x1="286.1859648" y1="245.52564049" x2="286.18624831" y2="247.49999861"/>
    </g>
    <g lc:layername="A-WALL-JAMB" lc:is_locked="false" lc:is_construction="false" fill="none" stroke="black" stroke-width="1">
        <line x1="285.58370148" y1="373.73227386" x2="290.45870148" y2="373.73227386"/>
        <line x1="192.07977612" y1="497.984375" x2="192.07977612" y2="493.984375"/>
        <line x1="193.57977612" y1="497.984375" x2="193.57977612" y2="493.984375"/>
        <line x1="192.07977612" y1="493.984375" x2="193.57977612" y2="493.984375"/>
        <line x1="192.07977612" y1="497.984375" x2="193.57977612" y2="497.984375"/>
        <line x1="215.07977612" y1="497.984375" x2="217.07977612" y2="497.984375"/>
        <line x1="215.07977612" y1="493.984375" x2="217.07977612" y2="493.984375"/>
        <line x1="215.07977612" y1="497.984375" x2="215.07977612" y2="493.984375"/>
        <line x1="217.07977612" y1="497.984375" x2="217.07977612" y2="493.984375"/>
        <line x1="238.57977612" y1="497.984375" x2="238.57977612" y2="493.984375"/>
        <line x1="240.07977612" y1="497.984375" x2="240.07977612" y2="493.984375"/>
        <line x1="238.57977612" y1="493.984375" x2="240.07977612" y2="493.984375"/>
        <line x1="238.57977612" y1="497.984375" x2="240.07977612" y2="497.984375"/>
        <path d="M280.4692874,207.51827453 L280.1567874,207.51827453 L280.1567874,207.45577453 L280.4067874,207.45577453 A0.0625,0.0625 0 0,0 280.4692874,207.39327453 L280.4692874,205.64327453 A0.0625,0.0625 0 0,0 280.4067874,205.58077453 L278.5942874,205.58077453 A0.0625,0.0625 0 0,1 278.5317874,205.51827453 L278.5317874,205.01827453 A0.0625,0.0625 0 0,0 278.4692874,204.95577453 L276.9692874,204.95577453 A0.0625,0.0625 0 0,0 276.9067874,205.01827453 L276.9067874,205.51827453 A0.0625,0.0625 0 0,1 276.8442874,205.58077453 L275.0338971,205.58077453 A0.0625,0.0625 0 0,0 274.9713971,205.64327453 L274.9713971,207.39327453 A0.0625,0.0625 0 0,0 275.0338971,207.45577453 L275.2817874,207.45577453 L275.2817874,207.51827453 L274.9713971,207.51827453 A0.0625,0.0625 0 0,1 274.9088971,207.45577453 L274.9088971,205.58077453 A0.0625,0.0625 0 0,1 274.9713971,205.51827453 L276.7817874,205.51827453 A0.0625,0.0625 0 0,0 276.8442874,205.45577453 L276.8442874,204.95577453 A0.0625,0.0625 0 0,1 276.9067874,204.89327453 L278.5317874,204.89327453 A0.0625,0.0625 0 0,1 278.5942874,204.95577453 L278.5942874,205.45577453 A0.0625,0.0625 0 0,0 278.6567874,205.51827453 L280.4692874,205.51827453 A0.0625,0.0625 0 0,1 280.5317874,205.58077453 L280.5317874,207.45577453 A0.0625,0.0625 0 0,1 280.4692874,207.51827453 Z "/>
        <path d="M280.4692874,167.51827453 L280.15678729,167.51827453 L280.15678729,167.58077453 L280.4067874,167.58077453 A0.0625,0.0625 0 0,1 280.4692874,167.64327453 L280.4692874,169.39327453 A0.0625,0.0625 0 0,1 280.4067874,169.45577453 L278.5942874,169.45577453 A0.0625,0.0625 0 0,0 278.5317874,169.51827453 L278.5317874,170.01827453 A0.0625,0.0625 0 0,1 278.4692874,170.08077453 L276.9692874,170.08077453 A0.0625,0.0625 0 0,1 276.9067874,170.01827453 L276.9067874,169.51827453 A0.0625,0.0625 0 0,0 276.8442874,169.45577453 L275.0338971,169.45577453 A0.0625,0.0625 0 0,1 274.9713971,169.39327453 L274.9713971,167.64327453 A0.0625,0.0625 0 0,1 275.0338971,167.58077453 L275.2817874,167.58077453 L275.2817874,167.51827453 L274.9713971,167.51827453 A0.0625,0.0625 0 0,0 274.9088971,167.58077453 L274.9088971,169.45577453 A0.0625,0.0625 0 0,0 274.9713971,169.51827453 L276.7817874,169.51827453 A0.0625,0.0625 0 0,1 276.8442874,169.58077453 L276.8442874,170.08077453 A0.0625,0.0625 0 0,0 276.9067874,170.14327453 L278.5317874,170.14327453 A0.0625,0.0625 0 0,0 278.5942874,170.08077453 L278.5942874,169.58077453 A0.0625,0.0625 0 0,1 278.6567874,169.51827453 L280.4692874,169.51827453 A0.0625,0.0625 0 0,0 280.5317874,169.45577453 L280.5317874,167.58077453 A0.0625,0.0625 0 0,0 280.4692874,167.51827453 Z "/>
        <path d="M443.24087888,496.32658294 L443.46111008,496.32658294 L443.46111008,492.51195141 L442.93295692,492.51195141 L442.93295692,492.671875 L443.30795692,492.671875 L443.30795692,492.51195141 "/>
        <path d="M443.30795692,494.359375 L443.30795692,494.046875 L442.93295692,494.046875 L442.93295692,494.359375 L443.30795692,494.359375 Z "/>
        <path d="M443.30795692,495.88969323 L443.30795692,495.72976964 L442.93295692,495.72976964 L442.93295692,495.88969323 L443.46111008,495.88969323 "/>
        <path d="M441.33589452,495.29226964 L441.69287848,495.29226964 L441.69287848,494.91726964 L441.33589452,494.91726964 L441.33589452,494.60476964 L443.33611008,494.60476964 L443.33611008,495.60476964 L441.33589452,495.60476964 L441.33589452,495.29226964 Z "/>
        <path d="M443.62388873,492.984375 L444.3727753,492.984375 L444.3727753,498.984375 L443.62388873,498.984375 L443.62388873,492.984375 Z "/>
        <path d="M397.74788308,495.29226964 L397.39089913,495.29226964 L397.39089913,494.91726964 L397.74788308,494.91726964 L397.74788308,494.60476964 L395.74766752,494.60476964 L395.74766752,495.60476964 L397.74788308,495.60476964 L397.74788308,495.29226964 Z "/>
        <path d="M395.74766752,493.109375 L396.10465148,493.109375 L396.10465148,493.484375 L395.74766752,493.484375 L395.74766752,493.796875 L397.74788308,493.796875 L397.74788308,492.796875 L395.74766752,492.796875 L395.74766752,493.109375 Z "/>
        <path d="M395.99766752,493.20341521 L395.99766752,493.390625 "/>
        <path d="M349.43870712,495.88969323 L349.43870712,495.72976964 L349.81370712,495.72976964 L349.81370712,495.88969323 L349.28555396,495.88969323 "/>
        <path d="M349.43870712,492.51195141 L349.43870712,492.671875 L349.81370712,492.671875 L349.81370712,492.51195141 L349.28555396,492.51195141 "/>
        <path d="M351.43892268,493.109375 L351.08193872,493.109375 L351.08193872,493.484375 L351.43892268,493.484375 L351.43892268,493.796875 L349.43870712,493.796875 L349.43870712,492.796875 L351.43892268,492.796875 L351.43892268,493.109375 Z "/>
        <path d="M349.43870712,494.359375 L349.43870712,494.046875 L349.81370712,494.046875 L349.81370712,494.359375 L349.43870712,494.359375 Z "/>
        <line x1="349.28555396" y1="494.20082232" x2="349.43870712" y2="494.20082232"/>
        <path d="M349.50578515,496.32658294 L349.28555396,496.32658294 L349.28555396,492.51195141 L349.81370712,492.51195141 L349.81370712,492.671875 L349.43870712,492.671875 L349.43870712,492.51195141 "/>
        <path d="M349.1227753,492.984375 L348.37388873,492.984375 L348.37388873,498.984375 L349.1227753,498.984375 L349.1227753,492.984375 Z "/>
        <line x1="348.37388873" y1="498.984375" x2="349.1227753" y2="492.984375"/>
        <line x1="444.3727753" y1="498.984375" x2="443.62388873" y2="492.984375"/>
        <path d="M100.38805545,496.32813756 L100.60828664,496.32813756 L100.60828664,492.51350604 L100.08013349,492.51350604 L100.08013349,492.67342962 L100.45513349,492.67342962 L100.45513349,492.51350604 "/>
        <path d="M100.45513349,494.36092962 L100.45513349,494.04842962 L100.08013349,494.04842962 L100.08013349,494.36092962 L100.45513349,494.36092962 Z "/>
        <path d="M100.45513349,495.89124785 L100.45513349,495.73132427 L100.08013349,495.73132427 L100.08013349,495.89124785 L100.60828664,495.89124785 "/>
        <path d="M98.48307108,495.29382427 L98.84005504,495.29382427 L98.84005504,494.91882427 L98.48307108,494.91882427 L98.48307108,494.60632427 L100.48328664,494.60632427 L100.48328664,495.60632427 L98.48307108,495.60632427 L98.48307108,495.29382427 Z "/>
        <path d="M100.7710653,492.98592962 L101.51995187,492.98592962 L101.51995187,498.98592962 L100.7710653,498.98592962 L100.7710653,492.98592962 Z "/>
        <path d="M66.89505965,495.29382427 L66.53807569,495.29382427 L66.53807569,494.91882427 L66.89505965,494.91882427 L66.89505965,494.60632427 L64.89484409,494.60632427 L64.89484409,495.60632427 L66.89505965,495.60632427 L66.89505965,495.29382427 Z "/>
        <path d="M64.89484409,493.11092962 L65.25182805,493.11092962 L65.25182805,493.48592962 L64.89484409,493.48592962 L64.89484409,493.79842962 L66.89505965,493.79842962 L66.89505965,492.79842962 L64.89484409,492.79842962 L64.89484409,493.11092962 Z "/>
        <path d="M65.14484409,493.20496983 L65.14484409,493.39217962 "/>
        <path d="M30.58588368,495.89124785 L30.58588368,495.73132427 L30.96088368,495.73132427 L30.96088368,495.89124785 L30.43273053,495.89124785 "/>
        <path d="M30.58588368,492.51350604 L30.58588368,492.67342962 L30.96088368,492.67342962 L30.96088368,492.51350604 L30.43273053,492.51350604 "/>
        <path d="M32.58609925,493.11092962 L32.22911529,493.11092962 L32.22911529,493.48592962 L32.58609925,493.48592962 L32.58609925,493.79842962 L30.58588368,493.79842962 L30.58588368,492.79842962 L32.58609925,492.79842962 L32.58609925,493.11092962 Z "/>
        <path d="M30.58588368,494.36092962 L30.58588368,494.04842962 L30.96088368,494.04842962 L30.96088368,494.36092962 L30.58588368,494.36092962 Z "/>
        <line x1="30.43273053" y1="494.20237695" x2="30.58588368" y2="494.20237695"/>
        <path d="M30.65296172,496.32813756 L30.43273053,496.32813756 L30.43273053,492.51350604 L30.96088368,492.51350604 L30.96088368,492.67342962 L30.58588368,492.67342962 L30.58588368,492.51350604 "/>
        <path d="M30.26995187,492.98592962 L29.5210653,492.98592962 L29.5210653,498.98592962 L30.26995187,498.98592962 L30.26995187,492.98592962 Z "/>
        <line x1="29.5210653" y1="498.98592962" x2="30.26995187" y2="492.98592962"/>
        <line x1="101.51995187" y1="498.98592962" x2="100.7710653" y2="492.98592962"/>
        <path d="M272.35614198,322.10621821 L272.35614198,321.85621821 L272.85614198,321.85621821 L272.85614198,322.10621821 L272.85614198,322.10621821 L273.35614198,322.10621821 L273.35614198,321.35621821 L269.85614198,321.35621821 L269.85614198,322.10621821 L272.35614198,322.10621821 Z "/>
        <path d="M230.85614198,315.73227068 L230.85614198,315.98227068 L230.35614198,315.98227068 L230.35614198,315.73227068 L230.35614198,315.73227068 L229.85614198,315.73227068 L229.85614198,316.48227068 L233.35614198,316.48227068 L233.35614198,315.73227068 L230.85614198,315.73227068 Z "/>
        <path d="M233.60614243,317.8572705 L233.60614198,316.4822705 L232.98114198,316.48227068 L232.98114357,321.35621832 L233.60614357,321.35621814 L233.60614242,319.35698019 L233.98114242,319.35754681 L233.98114198,317.85783712 L233.60614243,317.8572705 "/>
        <path d="M230.85614198,322.10621832 L230.85614198,321.85621832 L230.35614198,321.85621832 L230.35614198,322.10621832 L230.35614198,322.10621832 L229.85614198,322.10621832 L229.85614198,321.35621832 L233.35614198,321.35621832 L233.35614198,322.10621832 L230.85614198,322.10621832 Z "/>
        <path d="M272.35533914,315.73227068 L272.35533914,315.98227068 L272.85533914,315.98227068 L272.85533914,315.73227068 L272.85533914,315.73227068 L273.35533914,315.73227068 L273.35533914,316.48227068 L269.85533914,316.48227068 L269.85533914,315.73227068 L272.35533914,315.73227068 Z "/>
        <path d="M269.60533869,317.85727073 L269.60533914,316.4822705 L270.23033914,316.48227068 L270.23033755,321.35621832 L269.60533755,321.35621814 L269.6053382,319.35698042 L269.2303382,319.35754704 L269.23033864,317.85783735 L269.60533864,317.85727073 "/>
    </g>
    <g lc:layername="A-WALL-PGYP" lc:is_locked="false" lc:is_construction="false" fill="none" stroke="black" stroke-width="1">
        <line x1="470.0602753" y1="219.859375" x2="370.18604604" y2="219.859375"/>
        <line x1="470.1227753" y1="215.359375" x2="371.68594044" y2="215.359375"/>
        <line x1="377.53954364" y1="215.359375" x2="377.53963179" y2="219.859375"/>
        <line x1="104.8440777" y1="218.38388348" x2="67.31236161" y2="218.38388348"/>
        <line x1="104.8440777" y1="223.25888348" x2="67.31236161" y2="223.25888348"/>
        <line x1="104.8440777" y1="218.38388348" x2="104.8440777" y2="223.25888348"/>
    </g>
    <g lc:layername="A-WALL-PRHT" lc:is_locked="false" lc:is_construction="false" fill="none" stroke="black" stroke-width="1">
        <line x1="370.18566947" y1="189.60091975" x2="376.46444969" y2="189.60091975"/>
        <line x1="370.1852753" y1="163.359375" x2="376.46444969" y2="163.359375"/>
        <line x1="370.18604604" y1="219.859375" x2="370.1852753" y2="163.359375"/>
        <line x1="472.3727753" y1="215.859375" x2="371.68595429" y2="215.859375"/>
        <line x1="472.3727753" y1="219.359375" x2="371.68605129" y2="219.359375"/>
        <line x1="376.46444969" y1="163.359375" x2="376.46444969" y2="189.60091975"/>
        <line x1="374.28890904" y1="215.359375" x2="374.28826872" y2="189.60091975"/>
        <line x1="372.78890904" y1="215.359375" x2="372.78826872" y2="189.60091975"/>
        <line x1="371.68606515" y1="219.859375" x2="371.68530012" y2="189.60091975"/>
        <line x1="374.91388825" y1="214.609375" x2="374.91329643" y2="190.60091975"/>
        <line x1="371.6852753" y1="167.609375" x2="371.6852753" y2="188.10091975"/>
        <line x1="376.46444969" y1="167.609375" x2="371.6852753" y2="167.609375"/>
        <line x1="371.6852753" y1="188.10091975" x2="376.46444969" y2="188.10091975"/>
        <line x1="378.12912665" y1="219.359375" x2="378.12900193" y2="215.859375"/>
        <line x1="104.2190777" y1="219.00888348" x2="67.31236161" y2="219.00888348"/>
        <line x1="104.2190777" y1="222.63388348" x2="67.31236161" y2="222.63388348"/>
        <line x1="104.2190777" y1="219.00888348" x2="104.2190777" y2="222.63388348"/>
        <line x1="105.2190777" y1="218.00888348" x2="67.31236161" y2="218.00888348"/>
        <line x1="105.2190777" y1="223.63388348" x2="66.93736161" y2="223.63388348"/>
        <line x1="105.2190777" y1="218.00888348" x2="105.2190777" y2="223.63388348"/>
        <line x1="99.99823005" y1="152.12518535" x2="82.68148208" y2="152.12518535"/>
        <line x1="99.99823005" y1="155.75018535" x2="82.68148208" y2="155.75018535"/>
    </g>
</svg>
